STARTFONT 2.1
FONT -FontForge-Bm437 ATI 9x16-Normal-R-Normal--16-120-96-96-M-90-WinRoman-0
SIZE 12 96 96
FONTBOUNDINGBOX 9 16 0 -4
COMMENT "Generated by fontforge, http://fontforge.sourceforge.net"
COMMENT "FON conversion © 2015 VileR, license: CC BY-SA 4.0"
STARTPROPERTIES 34
FOUNDRY "FontForge"
FAMILY_NAME "Bm437 ATI 9x16"
WEIGHT_NAME "Normal"
SLANT "R"
SETWIDTH_NAME "Normal"
ADD_STYLE_NAME ""
PIXEL_SIZE 16
POINT_SIZE 120
RESOLUTION_X 96
RESOLUTION_Y 96
SPACING "M"
AVERAGE_WIDTH 90
CHARSET_REGISTRY "WinRoman"
CHARSET_ENCODING "0"
FONTNAME_REGISTRY ""
CHARSET_COLLECTIONS "WinRoman"
FONT_NAME "Bm437ATI9x16"
FACE_NAME "Bm437 ATI 9x16"
COPYRIGHT "FON conversion © 2015 VileR, license: CC BY-SA 4.0"
FONT_VERSION "001.000"
FONT_ASCENT 13
FONT_DESCENT 3
UNDERLINE_POSITION -2
UNDERLINE_THICKNESS 1
X_HEIGHT 6
CAP_HEIGHT 9
RAW_ASCENT 800
RAW_DESCENT 200
NORM_SPACE 9
RELATIVE_WEIGHT 40
RELATIVE_SETWIDTH 50
FIGURE_WIDTH 9
AVG_LOWERCASE_WIDTH 90
AVG_UPPERCASE_WIDTH 90
ENDPROPERTIES
CHARS 256
STARTCHAR uni0000
ENCODING 0
SWIDTH 562 0
DWIDTH 9 0
BBX 1 1 8 -4
BITMAP
00
ENDCHAR
STARTCHAR uni0001
ENCODING 1
SWIDTH 562 0
DWIDTH 9 0
BBX 8 10 0 0
BITMAP
7E
81
A5
81
81
BD
99
81
81
7E
ENDCHAR
STARTCHAR uni0002
ENCODING 2
SWIDTH 562 0
DWIDTH 9 0
BBX 7 10 0 0
BITMAP
7C
FE
FE
D6
FE
FE
BA
C6
FE
7C
ENDCHAR
STARTCHAR uni0003
ENCODING 3
SWIDTH 562 0
DWIDTH 9 0
BBX 7 9 0 0
BITMAP
6C
EE
FE
FE
FE
FE
7C
38
10
ENDCHAR
STARTCHAR uni0004
ENCODING 4
SWIDTH 562 0
DWIDTH 9 0
BBX 7 7 0 2
BITMAP
10
38
7C
FE
7C
38
10
ENDCHAR
STARTCHAR uni0005
ENCODING 5
SWIDTH 562 0
DWIDTH 9 0
BBX 7 9 0 0
BITMAP
10
38
38
10
6C
EE
6C
10
38
ENDCHAR
STARTCHAR uni0006
ENCODING 6
SWIDTH 562 0
DWIDTH 9 0
BBX 7 10 0 0
BITMAP
10
38
7C
7C
FE
FE
FE
6C
10
38
ENDCHAR
STARTCHAR uni0007
ENCODING 7
SWIDTH 562 0
DWIDTH 9 0
BBX 4 5 2 2
BITMAP
60
F0
F0
F0
60
ENDCHAR
STARTCHAR uni0008
ENCODING 8
SWIDTH 562 0
DWIDTH 9 0
BBX 8 16 0 -4
BITMAP
FF
FF
FF
FF
FF
E7
C3
C3
C3
E7
FF
FF
FF
FF
FF
FF
ENDCHAR
STARTCHAR uni0009
ENCODING 9
SWIDTH 562 0
DWIDTH 9 0
BBX 6 7 1 1
BITMAP
30
78
CC
CC
CC
78
30
ENDCHAR
STARTCHAR uni000A
ENCODING 10
SWIDTH 562 0
DWIDTH 9 0
BBX 8 16 0 -4
BITMAP
FF
FF
FF
FF
E7
C3
99
99
99
C3
E7
FF
FF
FF
FF
FF
ENDCHAR
STARTCHAR uni000B
ENCODING 11
SWIDTH 562 0
DWIDTH 9 0
BBX 7 10 0 0
BITMAP
1E
0E
1E
36
78
CC
CC
CC
CC
78
ENDCHAR
STARTCHAR uni000C
ENCODING 12
SWIDTH 562 0
DWIDTH 9 0
BBX 6 10 1 0
BITMAP
78
CC
CC
CC
78
30
FC
30
30
30
ENDCHAR
STARTCHAR uni000D
ENCODING 13
SWIDTH 562 0
DWIDTH 9 0
BBX 7 10 0 0
BITMAP
1E
1A
1E
18
18
18
18
78
F8
70
ENDCHAR
STARTCHAR uni000E
ENCODING 14
SWIDTH 562 0
DWIDTH 9 0
BBX 7 11 0 -1
BITMAP
3E
36
3E
36
36
76
F6
66
0E
1E
0C
ENDCHAR
STARTCHAR uni000F
ENCODING 15
SWIDTH 562 0
DWIDTH 9 0
BBX 8 10 0 0
BITMAP
18
DB
7E
3C
66
66
3C
7E
DB
18
ENDCHAR
STARTCHAR uni0010
ENCODING 16
SWIDTH 562 0
DWIDTH 9 0
BBX 7 9 0 0
BITMAP
80
E0
F0
FC
FE
FC
F0
E0
80
ENDCHAR
STARTCHAR uni0011
ENCODING 17
SWIDTH 562 0
DWIDTH 9 0
BBX 7 9 0 0
BITMAP
02
0E
3E
7E
FE
7E
3E
0E
02
ENDCHAR
STARTCHAR uni0012
ENCODING 18
SWIDTH 562 0
DWIDTH 9 0
BBX 6 10 1 0
BITMAP
30
78
FC
30
30
30
30
FC
78
30
ENDCHAR
STARTCHAR uni0013
ENCODING 19
SWIDTH 562 0
DWIDTH 9 0
BBX 6 10 1 0
BITMAP
CC
CC
CC
CC
CC
CC
CC
00
CC
CC
ENDCHAR
STARTCHAR uni0014
ENCODING 20
SWIDTH 562 0
DWIDTH 9 0
BBX 8 10 0 0
BITMAP
7F
DB
DB
DB
DB
7B
1B
1B
1B
1B
ENDCHAR
STARTCHAR uni0015
ENCODING 21
SWIDTH 562 0
DWIDTH 9 0
BBX 7 12 0 -2
BITMAP
7C
C6
C6
60
7C
F6
DE
7C
0C
C6
C6
7C
ENDCHAR
STARTCHAR uni0016
ENCODING 22
SWIDTH 562 0
DWIDTH 9 0
BBX 7 4 0 0
BITMAP
FE
FE
FE
FE
ENDCHAR
STARTCHAR uni0017
ENCODING 23
SWIDTH 562 0
DWIDTH 9 0
BBX 6 10 1 0
BITMAP
30
78
FC
30
30
30
FC
78
30
FC
ENDCHAR
STARTCHAR uni0018
ENCODING 24
SWIDTH 562 0
DWIDTH 9 0
BBX 6 10 1 0
BITMAP
30
78
FC
30
30
30
30
30
30
30
ENDCHAR
STARTCHAR uni0019
ENCODING 25
SWIDTH 562 0
DWIDTH 9 0
BBX 6 10 1 0
BITMAP
30
30
30
30
30
30
30
FC
78
30
ENDCHAR
STARTCHAR uni001A
ENCODING 26
SWIDTH 562 0
DWIDTH 9 0
BBX 8 5 0 2
BITMAP
0C
0E
FF
0E
0C
ENDCHAR
STARTCHAR uni001B
ENCODING 27
SWIDTH 562 0
DWIDTH 9 0
BBX 7 5 0 2
BITMAP
30
70
FE
70
30
ENDCHAR
STARTCHAR uni001C
ENCODING 28
SWIDTH 562 0
DWIDTH 9 0
BBX 7 4 0 2
BITMAP
C0
C0
C0
FE
ENDCHAR
STARTCHAR uni001D
ENCODING 29
SWIDTH 562 0
DWIDTH 9 0
BBX 8 5 0 2
BITMAP
24
66
FF
66
24
ENDCHAR
STARTCHAR uni001E
ENCODING 30
SWIDTH 562 0
DWIDTH 9 0
BBX 7 8 0 1
BITMAP
10
38
38
38
7C
7C
FE
FE
ENDCHAR
STARTCHAR uni001F
ENCODING 31
SWIDTH 562 0
DWIDTH 9 0
BBX 7 8 0 1
BITMAP
FE
FE
7C
7C
7C
38
38
10
ENDCHAR
STARTCHAR space
ENCODING 32
SWIDTH 562 0
DWIDTH 9 0
BBX 1 1 8 -4
BITMAP
00
ENDCHAR
STARTCHAR exclam
ENCODING 33
SWIDTH 562 0
DWIDTH 9 0
BBX 4 10 2 0
BITMAP
60
F0
F0
F0
F0
60
60
00
60
60
ENDCHAR
STARTCHAR quotedbl
ENCODING 34
SWIDTH 562 0
DWIDTH 9 0
BBX 5 5 2 6
BITMAP
D8
D8
D8
D8
50
ENDCHAR
STARTCHAR numbersign
ENCODING 35
SWIDTH 562 0
DWIDTH 9 0
BBX 7 10 0 0
BITMAP
6C
6C
6C
FE
6C
6C
FE
6C
6C
6C
ENDCHAR
STARTCHAR dollar
ENCODING 36
SWIDTH 562 0
DWIDTH 9 0
BBX 7 12 0 -2
BITMAP
18
18
7C
C6
C0
78
3C
06
C6
7C
18
18
ENDCHAR
STARTCHAR percent
ENCODING 37
SWIDTH 562 0
DWIDTH 9 0
BBX 7 7 0 0
BITMAP
62
66
0C
18
30
66
C6
ENDCHAR
STARTCHAR ampersand
ENCODING 38
SWIDTH 562 0
DWIDTH 9 0
BBX 7 10 0 0
BITMAP
38
6C
38
30
76
7E
CC
CC
CC
76
ENDCHAR
STARTCHAR quotesingle
ENCODING 39
SWIDTH 562 0
DWIDTH 9 0
BBX 3 4 3 7
BITMAP
60
60
60
C0
ENDCHAR
STARTCHAR parenleft
ENCODING 40
SWIDTH 562 0
DWIDTH 9 0
BBX 4 10 2 0
BITMAP
30
60
C0
C0
C0
C0
C0
C0
60
30
ENDCHAR
STARTCHAR parenright
ENCODING 41
SWIDTH 562 0
DWIDTH 9 0
BBX 4 10 2 0
BITMAP
C0
60
30
30
30
30
30
30
60
C0
ENDCHAR
STARTCHAR asterisk
ENCODING 42
SWIDTH 562 0
DWIDTH 9 0
BBX 7 5 0 2
BITMAP
6C
38
FE
38
6C
ENDCHAR
STARTCHAR plus
ENCODING 43
SWIDTH 562 0
DWIDTH 9 0
BBX 6 5 1 2
BITMAP
30
30
FC
30
30
ENDCHAR
STARTCHAR comma
ENCODING 44
SWIDTH 562 0
DWIDTH 9 0
BBX 3 4 3 -1
BITMAP
60
60
60
C0
ENDCHAR
STARTCHAR hyphen
ENCODING 45
SWIDTH 562 0
DWIDTH 9 0
BBX 7 1 0 4
BITMAP
FE
ENDCHAR
STARTCHAR period
ENCODING 46
SWIDTH 562 0
DWIDTH 9 0
BBX 2 2 3 0
BITMAP
C0
C0
ENDCHAR
STARTCHAR slash
ENCODING 47
SWIDTH 562 0
DWIDTH 9 0
BBX 8 9 0 0
BITMAP
01
03
06
0C
18
30
60
C0
80
ENDCHAR
STARTCHAR zero
ENCODING 48
SWIDTH 562 0
DWIDTH 9 0
BBX 8 10 0 0
BITMAP
7E
C3
C3
C3
DB
DB
C3
C3
C3
7E
ENDCHAR
STARTCHAR one
ENCODING 49
SWIDTH 562 0
DWIDTH 9 0
BBX 6 10 1 0
BITMAP
30
F0
30
30
30
30
30
30
30
FC
ENDCHAR
STARTCHAR two
ENCODING 50
SWIDTH 562 0
DWIDTH 9 0
BBX 7 10 0 0
BITMAP
7C
C6
C6
06
0C
18
30
60
C6
FE
ENDCHAR
STARTCHAR three
ENCODING 51
SWIDTH 562 0
DWIDTH 9 0
BBX 7 10 0 0
BITMAP
7C
C6
06
06
3C
06
06
06
C6
7C
ENDCHAR
STARTCHAR four
ENCODING 52
SWIDTH 562 0
DWIDTH 9 0
BBX 7 10 0 0
BITMAP
0C
1C
3C
6C
CC
CC
FE
0C
0C
1E
ENDCHAR
STARTCHAR five
ENCODING 53
SWIDTH 562 0
DWIDTH 9 0
BBX 7 10 0 0
BITMAP
FE
C0
C0
C0
FC
06
06
06
C6
7C
ENDCHAR
STARTCHAR six
ENCODING 54
SWIDTH 562 0
DWIDTH 9 0
BBX 7 10 0 0
BITMAP
7C
C6
C0
C0
FC
C6
C6
C6
C6
7C
ENDCHAR
STARTCHAR seven
ENCODING 55
SWIDTH 562 0
DWIDTH 9 0
BBX 7 10 0 0
BITMAP
FE
C6
06
0C
18
30
30
30
30
30
ENDCHAR
STARTCHAR eight
ENCODING 56
SWIDTH 562 0
DWIDTH 9 0
BBX 7 10 0 0
BITMAP
7C
C6
C6
C6
7C
C6
C6
C6
C6
7C
ENDCHAR
STARTCHAR nine
ENCODING 57
SWIDTH 562 0
DWIDTH 9 0
BBX 7 10 0 0
BITMAP
7C
C6
C6
C6
C6
7E
06
06
C6
7C
ENDCHAR
STARTCHAR colon
ENCODING 58
SWIDTH 562 0
DWIDTH 9 0
BBX 2 6 4 1
BITMAP
C0
C0
00
00
C0
C0
ENDCHAR
STARTCHAR semicolon
ENCODING 59
SWIDTH 562 0
DWIDTH 9 0
BBX 3 8 3 -1
BITMAP
60
60
00
00
60
60
60
C0
ENDCHAR
STARTCHAR less
ENCODING 60
SWIDTH 562 0
DWIDTH 9 0
BBX 6 9 0 0
BITMAP
0C
18
30
60
C0
60
30
18
0C
ENDCHAR
STARTCHAR equal
ENCODING 61
SWIDTH 562 0
DWIDTH 9 0
BBX 7 3 0 3
BITMAP
FE
00
FE
ENDCHAR
STARTCHAR greater
ENCODING 62
SWIDTH 562 0
DWIDTH 9 0
BBX 6 9 1 0
BITMAP
C0
60
30
18
0C
18
30
60
C0
ENDCHAR
STARTCHAR question
ENCODING 63
SWIDTH 562 0
DWIDTH 9 0
BBX 7 10 0 0
BITMAP
7C
C6
C6
0C
18
18
18
00
18
18
ENDCHAR
STARTCHAR at
ENCODING 64
SWIDTH 562 0
DWIDTH 9 0
BBX 7 10 0 0
BITMAP
7C
C6
C6
C6
DE
DE
DE
DC
C0
7E
ENDCHAR
STARTCHAR A
ENCODING 65
SWIDTH 562 0
DWIDTH 9 0
BBX 7 10 0 0
BITMAP
38
6C
C6
C6
C6
FE
C6
C6
C6
C6
ENDCHAR
STARTCHAR B
ENCODING 66
SWIDTH 562 0
DWIDTH 9 0
BBX 7 10 0 0
BITMAP
FC
66
66
66
7C
66
66
66
66
FC
ENDCHAR
STARTCHAR C
ENCODING 67
SWIDTH 562 0
DWIDTH 9 0
BBX 7 10 0 0
BITMAP
3C
66
C2
C0
C0
C0
C0
C2
66
3C
ENDCHAR
STARTCHAR D
ENCODING 68
SWIDTH 562 0
DWIDTH 9 0
BBX 7 10 0 0
BITMAP
F8
6C
66
66
66
66
66
66
6C
F8
ENDCHAR
STARTCHAR E
ENCODING 69
SWIDTH 562 0
DWIDTH 9 0
BBX 7 10 0 0
BITMAP
FE
66
60
64
7C
64
60
60
66
FE
ENDCHAR
STARTCHAR F
ENCODING 70
SWIDTH 562 0
DWIDTH 9 0
BBX 7 10 0 0
BITMAP
FE
66
60
64
7C
64
60
60
60
F0
ENDCHAR
STARTCHAR G
ENCODING 71
SWIDTH 562 0
DWIDTH 9 0
BBX 7 10 0 0
BITMAP
7C
C6
C6
C0
C0
C0
CE
C6
C6
7C
ENDCHAR
STARTCHAR H
ENCODING 72
SWIDTH 562 0
DWIDTH 9 0
BBX 7 10 0 0
BITMAP
C6
C6
C6
C6
FE
C6
C6
C6
C6
C6
ENDCHAR
STARTCHAR I
ENCODING 73
SWIDTH 562 0
DWIDTH 9 0
BBX 4 10 2 0
BITMAP
F0
60
60
60
60
60
60
60
60
F0
ENDCHAR
STARTCHAR J
ENCODING 74
SWIDTH 562 0
DWIDTH 9 0
BBX 6 10 0 0
BITMAP
3C
18
18
18
18
18
18
D8
D8
70
ENDCHAR
STARTCHAR K
ENCODING 75
SWIDTH 562 0
DWIDTH 9 0
BBX 7 10 0 0
BITMAP
C6
C6
CC
D8
F0
F0
D8
CC
C6
C6
ENDCHAR
STARTCHAR L
ENCODING 76
SWIDTH 562 0
DWIDTH 9 0
BBX 7 10 0 0
BITMAP
F0
60
60
60
60
60
60
62
66
FE
ENDCHAR
STARTCHAR M
ENCODING 77
SWIDTH 562 0
DWIDTH 9 0
BBX 8 10 0 0
BITMAP
C3
C3
E7
FF
FF
DB
DB
C3
C3
C3
ENDCHAR
STARTCHAR N
ENCODING 78
SWIDTH 562 0
DWIDTH 9 0
BBX 7 10 0 0
BITMAP
C6
C6
E6
E6
F6
DE
CE
CE
C6
C6
ENDCHAR
STARTCHAR O
ENCODING 79
SWIDTH 562 0
DWIDTH 9 0
BBX 7 10 0 0
BITMAP
7C
C6
C6
C6
C6
C6
C6
C6
C6
7C
ENDCHAR
STARTCHAR P
ENCODING 80
SWIDTH 562 0
DWIDTH 9 0
BBX 7 10 0 0
BITMAP
FC
66
66
66
66
7C
60
60
60
F0
ENDCHAR
STARTCHAR Q
ENCODING 81
SWIDTH 562 0
DWIDTH 9 0
BBX 7 11 0 -1
BITMAP
7C
C6
C6
C6
C6
C6
C6
D6
D6
7C
06
ENDCHAR
STARTCHAR R
ENCODING 82
SWIDTH 562 0
DWIDTH 9 0
BBX 7 10 0 0
BITMAP
FC
66
66
66
7C
78
6C
66
66
E6
ENDCHAR
STARTCHAR S
ENCODING 83
SWIDTH 562 0
DWIDTH 9 0
BBX 7 10 0 0
BITMAP
7C
C6
C0
C0
70
1C
06
06
C6
7C
ENDCHAR
STARTCHAR T
ENCODING 84
SWIDTH 562 0
DWIDTH 9 0
BBX 8 10 0 0
BITMAP
FF
99
18
18
18
18
18
18
18
3C
ENDCHAR
STARTCHAR U
ENCODING 85
SWIDTH 562 0
DWIDTH 9 0
BBX 7 10 0 0
BITMAP
C6
C6
C6
C6
C6
C6
C6
C6
C6
7C
ENDCHAR
STARTCHAR V
ENCODING 86
SWIDTH 562 0
DWIDTH 9 0
BBX 8 10 0 0
BITMAP
C3
C3
C3
C3
C3
C3
C3
66
3C
18
ENDCHAR
STARTCHAR W
ENCODING 87
SWIDTH 562 0
DWIDTH 9 0
BBX 8 10 0 0
BITMAP
C3
C3
C3
C3
DB
DB
DB
DB
FF
66
ENDCHAR
STARTCHAR X
ENCODING 88
SWIDTH 562 0
DWIDTH 9 0
BBX 8 10 0 0
BITMAP
C3
C3
C3
66
3C
3C
66
C3
C3
C3
ENDCHAR
STARTCHAR Y
ENCODING 89
SWIDTH 562 0
DWIDTH 9 0
BBX 8 10 0 0
BITMAP
C3
C3
C3
C3
66
3C
18
18
18
3C
ENDCHAR
STARTCHAR Z
ENCODING 90
SWIDTH 562 0
DWIDTH 9 0
BBX 7 10 0 0
BITMAP
FE
C6
86
0C
18
30
60
C2
C6
FE
ENDCHAR
STARTCHAR bracketleft
ENCODING 91
SWIDTH 562 0
DWIDTH 9 0
BBX 5 10 1 0
BITMAP
F8
C0
C0
C0
C0
C0
C0
C0
C0
F8
ENDCHAR
STARTCHAR backslash
ENCODING 92
SWIDTH 562 0
DWIDTH 9 0
BBX 8 9 0 0
BITMAP
80
C0
60
30
18
0C
06
03
01
ENDCHAR
STARTCHAR bracketright
ENCODING 93
SWIDTH 562 0
DWIDTH 9 0
BBX 5 10 1 0
BITMAP
F8
18
18
18
18
18
18
18
18
F8
ENDCHAR
STARTCHAR asciicircum
ENCODING 94
SWIDTH 562 0
DWIDTH 9 0
BBX 7 4 0 7
BITMAP
10
38
6C
C6
ENDCHAR
STARTCHAR underscore
ENCODING 95
SWIDTH 562 0
DWIDTH 9 0
BBX 8 1 0 -2
BITMAP
FF
ENDCHAR
STARTCHAR grave
ENCODING 96
SWIDTH 562 0
DWIDTH 9 0
BBX 3 4 3 7
BITMAP
C0
C0
C0
60
ENDCHAR
STARTCHAR a
ENCODING 97
SWIDTH 562 0
DWIDTH 9 0
BBX 7 7 0 0
BITMAP
78
0C
7C
CC
CC
DC
76
ENDCHAR
STARTCHAR b
ENCODING 98
SWIDTH 562 0
DWIDTH 9 0
BBX 7 10 0 0
BITMAP
E0
60
60
7C
66
66
66
66
66
FC
ENDCHAR
STARTCHAR c
ENCODING 99
SWIDTH 562 0
DWIDTH 9 0
BBX 7 7 0 0
BITMAP
7C
C6
C0
C0
C0
C6
7C
ENDCHAR
STARTCHAR d
ENCODING 100
SWIDTH 562 0
DWIDTH 9 0
BBX 7 10 0 0
BITMAP
1C
0C
0C
7C
CC
CC
CC
CC
CC
7E
ENDCHAR
STARTCHAR e
ENCODING 101
SWIDTH 562 0
DWIDTH 9 0
BBX 7 7 0 0
BITMAP
7C
C6
C6
FE
C0
C6
7C
ENDCHAR
STARTCHAR f
ENCODING 102
SWIDTH 562 0
DWIDTH 9 0
BBX 7 10 0 0
BITMAP
1C
36
30
30
FC
30
30
30
30
78
ENDCHAR
STARTCHAR g
ENCODING 103
SWIDTH 562 0
DWIDTH 9 0
BBX 7 9 0 -2
BITMAP
76
CE
C6
C6
CE
76
06
C6
7C
ENDCHAR
STARTCHAR h
ENCODING 104
SWIDTH 562 0
DWIDTH 9 0
BBX 7 10 0 0
BITMAP
E0
60
60
7C
66
66
66
66
66
E6
ENDCHAR
STARTCHAR i
ENCODING 105
SWIDTH 562 0
DWIDTH 9 0
BBX 4 10 2 0
BITMAP
60
60
00
E0
60
60
60
60
60
F0
ENDCHAR
STARTCHAR j
ENCODING 106
SWIDTH 562 0
DWIDTH 9 0
BBX 6 12 0 -2
BITMAP
0C
0C
00
1C
0C
0C
0C
0C
0C
CC
CC
78
ENDCHAR
STARTCHAR k
ENCODING 107
SWIDTH 562 0
DWIDTH 9 0
BBX 7 10 0 0
BITMAP
E0
60
60
66
66
6C
78
6C
66
E6
ENDCHAR
STARTCHAR l
ENCODING 108
SWIDTH 562 0
DWIDTH 9 0
BBX 3 10 3 0
BITMAP
C0
C0
C0
C0
C0
C0
C0
C0
C0
E0
ENDCHAR
STARTCHAR m
ENCODING 109
SWIDTH 562 0
DWIDTH 9 0
BBX 8 7 0 0
BITMAP
66
FF
DB
DB
DB
C3
C3
ENDCHAR
STARTCHAR n
ENCODING 110
SWIDTH 562 0
DWIDTH 9 0
BBX 7 7 0 0
BITMAP
DC
66
66
66
66
66
66
ENDCHAR
STARTCHAR o
ENCODING 111
SWIDTH 562 0
DWIDTH 9 0
BBX 7 7 0 0
BITMAP
7C
C6
C6
C6
C6
C6
7C
ENDCHAR
STARTCHAR p
ENCODING 112
SWIDTH 562 0
DWIDTH 9 0
BBX 7 9 0 -2
BITMAP
DC
66
66
66
66
7C
60
60
F0
ENDCHAR
STARTCHAR q
ENCODING 113
SWIDTH 562 0
DWIDTH 9 0
BBX 7 9 0 -2
BITMAP
76
CC
CC
CC
CC
7C
0C
0C
1E
ENDCHAR
STARTCHAR r
ENCODING 114
SWIDTH 562 0
DWIDTH 9 0
BBX 7 7 0 0
BITMAP
DC
66
60
60
60
60
F0
ENDCHAR
STARTCHAR s
ENCODING 115
SWIDTH 562 0
DWIDTH 9 0
BBX 7 7 0 0
BITMAP
7C
C6
C0
7C
06
C6
7C
ENDCHAR
STARTCHAR t
ENCODING 116
SWIDTH 562 0
DWIDTH 9 0
BBX 7 10 0 0
BITMAP
30
30
30
FC
30
30
30
30
36
1C
ENDCHAR
STARTCHAR u
ENCODING 117
SWIDTH 562 0
DWIDTH 9 0
BBX 7 7 0 0
BITMAP
CC
CC
CC
CC
CC
CC
76
ENDCHAR
STARTCHAR v
ENCODING 118
SWIDTH 562 0
DWIDTH 9 0
BBX 8 7 0 0
BITMAP
C3
C3
C3
C3
66
3C
18
ENDCHAR
STARTCHAR w
ENCODING 119
SWIDTH 562 0
DWIDTH 9 0
BBX 8 7 0 0
BITMAP
C3
C3
DB
DB
DB
FF
66
ENDCHAR
STARTCHAR x
ENCODING 120
SWIDTH 562 0
DWIDTH 9 0
BBX 7 7 0 0
BITMAP
C6
C6
6C
38
6C
C6
C6
ENDCHAR
STARTCHAR y
ENCODING 121
SWIDTH 562 0
DWIDTH 9 0
BBX 7 9 0 -2
BITMAP
C6
C6
C6
C6
CE
76
06
C6
7C
ENDCHAR
STARTCHAR z
ENCODING 122
SWIDTH 562 0
DWIDTH 9 0
BBX 7 7 0 0
BITMAP
FE
86
0C
18
30
62
FE
ENDCHAR
STARTCHAR braceleft
ENCODING 123
SWIDTH 562 0
DWIDTH 9 0
BBX 6 10 1 0
BITMAP
1C
30
30
30
E0
30
30
30
30
1C
ENDCHAR
STARTCHAR bar
ENCODING 124
SWIDTH 562 0
DWIDTH 9 0
BBX 2 10 3 0
BITMAP
C0
C0
C0
C0
00
C0
C0
C0
C0
C0
ENDCHAR
STARTCHAR braceright
ENCODING 125
SWIDTH 562 0
DWIDTH 9 0
BBX 6 10 1 0
BITMAP
E0
30
30
30
1C
30
30
30
30
E0
ENDCHAR
STARTCHAR asciitilde
ENCODING 126
SWIDTH 562 0
DWIDTH 9 0
BBX 7 2 0 8
BITMAP
76
DC
ENDCHAR
STARTCHAR uni007F
ENCODING 127
SWIDTH 562 0
DWIDTH 9 0
BBX 7 6 0 1
BITMAP
10
38
38
6C
6C
FE
ENDCHAR
STARTCHAR Euro
ENCODING 128
SWIDTH 562 0
DWIDTH 9 0
BBX 7 12 0 -2
BITMAP
3C
66
C0
C0
C0
C6
66
3C
18
0C
CC
38
ENDCHAR
STARTCHAR NameMe.129
ENCODING 129
SWIDTH 562 0
DWIDTH 9 0
BBX 7 10 0 0
BITMAP
C6
00
00
C6
C6
C6
C6
C6
CE
76
ENDCHAR
STARTCHAR quotesinglbase
ENCODING 130
SWIDTH 562 0
DWIDTH 9 0
BBX 7 11 0 0
BITMAP
0C
18
30
00
7C
C6
C6
FE
C0
C6
7C
ENDCHAR
STARTCHAR florin
ENCODING 131
SWIDTH 562 0
DWIDTH 9 0
BBX 7 11 0 0
BITMAP
30
78
CC
00
78
0C
7C
CC
CC
DC
76
ENDCHAR
STARTCHAR quotedblbase
ENCODING 132
SWIDTH 562 0
DWIDTH 9 0
BBX 7 10 0 0
BITMAP
CC
00
00
78
0C
7C
CC
CC
DC
76
ENDCHAR
STARTCHAR ellipsis
ENCODING 133
SWIDTH 562 0
DWIDTH 9 0
BBX 7 11 0 0
BITMAP
60
30
18
00
78
0C
7C
CC
CC
DC
76
ENDCHAR
STARTCHAR dagger
ENCODING 134
SWIDTH 562 0
DWIDTH 9 0
BBX 7 11 0 0
BITMAP
38
6C
38
00
78
0C
7C
CC
CC
DC
76
ENDCHAR
STARTCHAR daggerdbl
ENCODING 135
SWIDTH 562 0
DWIDTH 9 0
BBX 7 10 0 -2
BITMAP
7C
C6
C0
C0
C6
7C
18
0C
6C
38
ENDCHAR
STARTCHAR circumflex
ENCODING 136
SWIDTH 562 0
DWIDTH 9 0
BBX 7 11 0 0
BITMAP
30
78
CC
00
7C
C6
C6
FE
C0
C6
7C
ENDCHAR
STARTCHAR perthousand
ENCODING 137
SWIDTH 562 0
DWIDTH 9 0
BBX 7 10 0 0
BITMAP
CC
00
00
7C
C6
C6
FE
C0
C6
7C
ENDCHAR
STARTCHAR Scaron
ENCODING 138
SWIDTH 562 0
DWIDTH 9 0
BBX 7 11 0 0
BITMAP
30
18
0C
00
7C
C6
C6
FE
C0
C6
7C
ENDCHAR
STARTCHAR guilsinglleft
ENCODING 139
SWIDTH 562 0
DWIDTH 9 0
BBX 6 10 1 0
BITMAP
CC
00
00
70
30
30
30
30
30
78
ENDCHAR
STARTCHAR OE
ENCODING 140
SWIDTH 562 0
DWIDTH 9 0
BBX 6 11 1 0
BITMAP
30
78
CC
00
70
30
30
30
30
30
78
ENDCHAR
STARTCHAR NameMe.141
ENCODING 141
SWIDTH 562 0
DWIDTH 9 0
BBX 5 11 1 0
BITMAP
C0
60
30
00
70
30
30
30
30
30
78
ENDCHAR
STARTCHAR Zcaron
ENCODING 142
SWIDTH 562 0
DWIDTH 9 0
BBX 7 11 0 0
BITMAP
C6
00
38
6C
C6
C6
C6
FE
C6
C6
C6
ENDCHAR
STARTCHAR NameMe.143
ENCODING 143
SWIDTH 562 0
DWIDTH 9 0
BBX 7 12 0 0
BITMAP
38
6C
38
00
38
6C
C6
C6
FE
C6
C6
C6
ENDCHAR
STARTCHAR NameMe.144
ENCODING 144
SWIDTH 562 0
DWIDTH 9 0
BBX 7 12 0 0
BITMAP
0C
18
30
00
FE
60
60
7C
60
60
60
FE
ENDCHAR
STARTCHAR quoteleft
ENCODING 145
SWIDTH 562 0
DWIDTH 9 0
BBX 8 8 0 0
BITMAP
66
DB
1B
7F
D8
D8
DF
76
ENDCHAR
STARTCHAR quoteright
ENCODING 146
SWIDTH 562 0
DWIDTH 9 0
BBX 7 10 0 0
BITMAP
7E
D8
D8
D8
D8
FE
D8
D8
D8
DE
ENDCHAR
STARTCHAR quotedblleft
ENCODING 147
SWIDTH 562 0
DWIDTH 9 0
BBX 7 11 0 0
BITMAP
30
78
CC
00
7C
C6
C6
C6
C6
C6
7C
ENDCHAR
STARTCHAR quotedblright
ENCODING 148
SWIDTH 562 0
DWIDTH 9 0
BBX 7 10 0 0
BITMAP
C6
00
00
7C
C6
C6
C6
C6
C6
7C
ENDCHAR
STARTCHAR bullet
ENCODING 149
SWIDTH 562 0
DWIDTH 9 0
BBX 7 11 0 0
BITMAP
30
18
0C
00
7C
C6
C6
C6
C6
C6
7C
ENDCHAR
STARTCHAR endash
ENCODING 150
SWIDTH 562 0
DWIDTH 9 0
BBX 7 11 0 0
BITMAP
30
78
CC
00
C6
C6
C6
C6
C6
CE
76
ENDCHAR
STARTCHAR emdash
ENCODING 151
SWIDTH 562 0
DWIDTH 9 0
BBX 7 11 0 0
BITMAP
60
30
18
00
C6
C6
C6
C6
C6
CE
76
ENDCHAR
STARTCHAR tilde
ENCODING 152
SWIDTH 562 0
DWIDTH 9 0
BBX 7 13 0 -2
BITMAP
C6
00
00
C6
C6
C6
C6
CE
76
06
06
C6
7C
ENDCHAR
STARTCHAR trademark
ENCODING 153
SWIDTH 562 0
DWIDTH 9 0
BBX 7 11 0 0
BITMAP
C6
00
7C
C6
C6
C6
C6
C6
C6
C6
7C
ENDCHAR
STARTCHAR scaron
ENCODING 154
SWIDTH 562 0
DWIDTH 9 0
BBX 7 11 0 0
BITMAP
C6
00
C6
C6
C6
C6
C6
C6
C6
C6
7C
ENDCHAR
STARTCHAR guilsinglright
ENCODING 155
SWIDTH 562 0
DWIDTH 9 0
BBX 7 10 0 0
BITMAP
18
18
7C
C6
C0
C0
C6
7C
18
18
ENDCHAR
STARTCHAR oe
ENCODING 156
SWIDTH 562 0
DWIDTH 9 0
BBX 7 11 0 0
BITMAP
38
6C
60
60
F0
60
60
60
66
F6
6C
ENDCHAR
STARTCHAR NameMe.157
ENCODING 157
SWIDTH 562 0
DWIDTH 9 0
BBX 6 11 1 0
BITMAP
CC
CC
CC
CC
78
30
FC
30
78
30
30
ENDCHAR
STARTCHAR zcaron
ENCODING 158
SWIDTH 562 0
DWIDTH 9 0
BBX 7 11 0 0
BITMAP
FC
C6
C6
FC
C0
CC
DE
CC
CC
CC
C6
ENDCHAR
STARTCHAR Ydieresis
ENCODING 159
SWIDTH 562 0
DWIDTH 9 0
BBX 8 13 0 -2
BITMAP
0E
1B
18
18
18
7E
18
18
18
18
18
D8
70
ENDCHAR
STARTCHAR uni00A0
ENCODING 160
SWIDTH 562 0
DWIDTH 9 0
BBX 7 11 0 0
BITMAP
0C
18
30
00
78
0C
7C
CC
CC
DC
76
ENDCHAR
STARTCHAR exclamdown
ENCODING 161
SWIDTH 562 0
DWIDTH 9 0
BBX 4 11 2 0
BITMAP
30
60
C0
00
E0
60
60
60
60
60
F0
ENDCHAR
STARTCHAR cent
ENCODING 162
SWIDTH 562 0
DWIDTH 9 0
BBX 7 11 0 0
BITMAP
0C
18
30
00
7C
C6
C6
C6
C6
C6
7C
ENDCHAR
STARTCHAR sterling
ENCODING 163
SWIDTH 562 0
DWIDTH 9 0
BBX 7 11 0 0
BITMAP
18
30
60
00
CC
CC
CC
CC
CC
DC
76
ENDCHAR
STARTCHAR currency
ENCODING 164
SWIDTH 562 0
DWIDTH 9 0
BBX 7 10 0 0
BITMAP
76
DC
00
BC
66
66
66
66
66
E6
ENDCHAR
STARTCHAR yen
ENCODING 165
SWIDTH 562 0
DWIDTH 9 0
BBX 7 11 0 0
BITMAP
76
DC
00
C6
C6
E6
F6
DE
CE
C6
C6
ENDCHAR
STARTCHAR brokenbar
ENCODING 166
SWIDTH 562 0
DWIDTH 9 0
BBX 6 6 1 5
BITMAP
78
D8
D8
7C
00
FC
ENDCHAR
STARTCHAR section
ENCODING 167
SWIDTH 562 0
DWIDTH 9 0
BBX 5 6 1 5
BITMAP
70
D8
D8
70
00
F8
ENDCHAR
STARTCHAR dieresis
ENCODING 168
SWIDTH 562 0
DWIDTH 9 0
BBX 7 10 0 0
BITMAP
30
30
00
30
30
30
60
C6
C6
7C
ENDCHAR
STARTCHAR copyright
ENCODING 169
SWIDTH 562 0
DWIDTH 9 0
BBX 6 4 1 1
BITMAP
FC
C0
C0
C0
ENDCHAR
STARTCHAR ordfeminine
ENCODING 170
SWIDTH 562 0
DWIDTH 9 0
BBX 6 4 1 1
BITMAP
FC
0C
0C
0C
ENDCHAR
STARTCHAR guillemotleft
ENCODING 171
SWIDTH 562 0
DWIDTH 9 0
BBX 7 13 0 -2
BITMAP
60
60
62
66
6C
18
30
60
DC
36
0C
18
3E
ENDCHAR
STARTCHAR logicalnot
ENCODING 172
SWIDTH 562 0
DWIDTH 9 0
BBX 7 13 0 -2
BITMAP
60
60
62
66
6C
18
36
6E
DE
36
7E
06
06
ENDCHAR
STARTCHAR uni00AD
ENCODING 173
SWIDTH 562 0
DWIDTH 9 0
BBX 4 10 2 0
BITMAP
60
60
00
60
60
F0
F0
F0
F0
60
ENDCHAR
STARTCHAR registered
ENCODING 174
SWIDTH 562 0
DWIDTH 9 0
BBX 7 5 0 2
BITMAP
36
6C
D8
6C
36
ENDCHAR
STARTCHAR macron
ENCODING 175
SWIDTH 562 0
DWIDTH 9 0
BBX 7 5 0 2
BITMAP
D8
6C
36
6C
D8
ENDCHAR
STARTCHAR degree
ENCODING 176
SWIDTH 562 0
DWIDTH 9 0
BBX 7 16 1 -4
BITMAP
22
88
22
88
22
88
22
88
22
88
22
88
22
88
22
88
ENDCHAR
STARTCHAR plusminus
ENCODING 177
SWIDTH 562 0
DWIDTH 9 0
BBX 8 16 0 -4
BITMAP
AA
55
AA
55
AA
55
AA
55
AA
55
AA
55
AA
55
AA
55
ENDCHAR
STARTCHAR uni00B2
ENCODING 178
SWIDTH 562 0
DWIDTH 9 0
BBX 8 16 0 -4
BITMAP
DD
77
DD
77
DD
77
DD
77
DD
77
DD
77
DD
77
DD
77
ENDCHAR
STARTCHAR uni00B3
ENCODING 179
SWIDTH 562 0
DWIDTH 9 0
BBX 2 16 3 -4
BITMAP
C0
C0
C0
C0
C0
C0
C0
C0
C0
C0
C0
C0
C0
C0
C0
C0
ENDCHAR
STARTCHAR acute
ENCODING 180
SWIDTH 562 0
DWIDTH 9 0
BBX 5 16 0 -4
BITMAP
18
18
18
18
18
18
18
F8
18
18
18
18
18
18
18
18
ENDCHAR
STARTCHAR mu
ENCODING 181
SWIDTH 562 0
DWIDTH 9 0
BBX 5 16 0 -4
BITMAP
18
18
18
18
18
F8
18
F8
18
18
18
18
18
18
18
18
ENDCHAR
STARTCHAR paragraph
ENCODING 182
SWIDTH 562 0
DWIDTH 9 0
BBX 7 16 0 -4
BITMAP
36
36
36
36
36
36
36
F6
36
36
36
36
36
36
36
36
ENDCHAR
STARTCHAR periodcentered
ENCODING 183
SWIDTH 562 0
DWIDTH 9 0
BBX 7 9 0 -4
BITMAP
FE
36
36
36
36
36
36
36
36
ENDCHAR
STARTCHAR cedilla
ENCODING 184
SWIDTH 562 0
DWIDTH 9 0
BBX 5 11 0 -4
BITMAP
F8
18
F8
18
18
18
18
18
18
18
18
ENDCHAR
STARTCHAR uni00B9
ENCODING 185
SWIDTH 562 0
DWIDTH 9 0
BBX 7 16 0 -4
BITMAP
36
36
36
36
36
F6
06
F6
36
36
36
36
36
36
36
36
ENDCHAR
STARTCHAR ordmasculine
ENCODING 186
SWIDTH 562 0
DWIDTH 9 0
BBX 5 16 2 -4
BITMAP
D8
D8
D8
D8
D8
D8
D8
D8
D8
D8
D8
D8
D8
D8
D8
D8
ENDCHAR
STARTCHAR guillemotright
ENCODING 187
SWIDTH 562 0
DWIDTH 9 0
BBX 7 11 0 -4
BITMAP
FE
06
F6
36
36
36
36
36
36
36
36
ENDCHAR
STARTCHAR onequarter
ENCODING 188
SWIDTH 562 0
DWIDTH 9 0
BBX 7 8 0 4
BITMAP
36
36
36
36
36
F6
06
FE
ENDCHAR
STARTCHAR onehalf
ENCODING 189
SWIDTH 562 0
DWIDTH 9 0
BBX 7 8 0 4
BITMAP
36
36
36
36
36
36
36
FE
ENDCHAR
STARTCHAR threequarters
ENCODING 190
SWIDTH 562 0
DWIDTH 9 0
BBX 5 8 0 4
BITMAP
18
18
18
18
18
F8
18
F8
ENDCHAR
STARTCHAR questiondown
ENCODING 191
SWIDTH 562 0
DWIDTH 9 0
BBX 5 9 0 -4
BITMAP
F8
18
18
18
18
18
18
18
18
ENDCHAR
STARTCHAR Agrave
ENCODING 192
SWIDTH 562 0
DWIDTH 9 0
BBX 6 8 3 4
BITMAP
C0
C0
C0
C0
C0
C0
C0
FC
ENDCHAR
STARTCHAR Aacute
ENCODING 193
SWIDTH 562 0
DWIDTH 9 0
BBX 9 8 0 4
BITMAP
1800
1800
1800
1800
1800
1800
1800
FF80
ENDCHAR
STARTCHAR Acircumflex
ENCODING 194
SWIDTH 562 0
DWIDTH 9 0
BBX 9 9 0 -4
BITMAP
FF80
1800
1800
1800
1800
1800
1800
1800
1800
ENDCHAR
STARTCHAR Atilde
ENCODING 195
SWIDTH 562 0
DWIDTH 9 0
BBX 6 16 3 -4
BITMAP
C0
C0
C0
C0
C0
C0
C0
FC
C0
C0
C0
C0
C0
C0
C0
C0
ENDCHAR
STARTCHAR Adieresis
ENCODING 196
SWIDTH 562 0
DWIDTH 9 0
BBX 9 1 0 4
BITMAP
FF80
ENDCHAR
STARTCHAR Aring
ENCODING 197
SWIDTH 562 0
DWIDTH 9 0
BBX 9 16 0 -4
BITMAP
1800
1800
1800
1800
1800
1800
1800
FF80
1800
1800
1800
1800
1800
1800
1800
1800
ENDCHAR
STARTCHAR AE
ENCODING 198
SWIDTH 562 0
DWIDTH 9 0
BBX 6 16 3 -4
BITMAP
C0
C0
C0
C0
C0
FC
C0
FC
C0
C0
C0
C0
C0
C0
C0
C0
ENDCHAR
STARTCHAR Ccedilla
ENCODING 199
SWIDTH 562 0
DWIDTH 9 0
BBX 7 16 2 -4
BITMAP
D8
D8
D8
D8
D8
D8
D8
DE
D8
D8
D8
D8
D8
D8
D8
D8
ENDCHAR
STARTCHAR Egrave
ENCODING 200
SWIDTH 562 0
DWIDTH 9 0
BBX 7 8 2 4
BITMAP
D8
D8
D8
D8
D8
DE
C0
FE
ENDCHAR
STARTCHAR Eacute
ENCODING 201
SWIDTH 562 0
DWIDTH 9 0
BBX 7 11 2 -4
BITMAP
FE
C0
DE
D8
D8
D8
D8
D8
D8
D8
D8
ENDCHAR
STARTCHAR Ecircumflex
ENCODING 202
SWIDTH 562 0
DWIDTH 9 0
BBX 9 8 0 4
BITMAP
3600
3600
3600
3600
3600
F780
0000
FF80
ENDCHAR
STARTCHAR Edieresis
ENCODING 203
SWIDTH 562 0
DWIDTH 9 0
BBX 9 11 0 -4
BITMAP
FF80
0000
F780
3600
3600
3600
3600
3600
3600
3600
3600
ENDCHAR
STARTCHAR Igrave
ENCODING 204
SWIDTH 562 0
DWIDTH 9 0
BBX 7 16 2 -4
BITMAP
D8
D8
D8
D8
D8
DE
C0
DE
D8
D8
D8
D8
D8
D8
D8
D8
ENDCHAR
STARTCHAR Iacute
ENCODING 205
SWIDTH 562 0
DWIDTH 9 0
BBX 9 3 0 4
BITMAP
FF80
0000
FF80
ENDCHAR
STARTCHAR Icircumflex
ENCODING 206
SWIDTH 562 0
DWIDTH 9 0
BBX 9 16 0 -4
BITMAP
3600
3600
3600
3600
3600
F780
0000
F780
3600
3600
3600
3600
3600
3600
3600
3600
ENDCHAR
STARTCHAR Idieresis
ENCODING 207
SWIDTH 562 0
DWIDTH 9 0
BBX 9 8 0 4
BITMAP
1800
1800
1800
1800
1800
FF80
0000
FF80
ENDCHAR
STARTCHAR Eth
ENCODING 208
SWIDTH 562 0
DWIDTH 9 0
BBX 9 8 0 4
BITMAP
3600
3600
3600
3600
3600
3600
3600
FF80
ENDCHAR
STARTCHAR Ntilde
ENCODING 209
SWIDTH 562 0
DWIDTH 9 0
BBX 9 11 0 -4
BITMAP
FF80
0000
FF80
1800
1800
1800
1800
1800
1800
1800
1800
ENDCHAR
STARTCHAR Ograve
ENCODING 210
SWIDTH 562 0
DWIDTH 9 0
BBX 9 9 0 -4
BITMAP
FF80
3600
3600
3600
3600
3600
3600
3600
3600
ENDCHAR
STARTCHAR Oacute
ENCODING 211
SWIDTH 562 0
DWIDTH 9 0
BBX 7 8 2 4
BITMAP
D8
D8
D8
D8
D8
D8
D8
FE
ENDCHAR
STARTCHAR Ocircumflex
ENCODING 212
SWIDTH 562 0
DWIDTH 9 0
BBX 6 8 3 4
BITMAP
C0
C0
C0
C0
C0
FC
C0
FC
ENDCHAR
STARTCHAR Otilde
ENCODING 213
SWIDTH 562 0
DWIDTH 9 0
BBX 6 11 3 -4
BITMAP
FC
C0
FC
C0
C0
C0
C0
C0
C0
C0
C0
ENDCHAR
STARTCHAR Odieresis
ENCODING 214
SWIDTH 562 0
DWIDTH 9 0
BBX 7 9 2 -4
BITMAP
FE
D8
D8
D8
D8
D8
D8
D8
D8
ENDCHAR
STARTCHAR multiply
ENCODING 215
SWIDTH 562 0
DWIDTH 9 0
BBX 9 16 0 -4
BITMAP
3600
3600
3600
3600
3600
3600
3600
FF80
3600
3600
3600
3600
3600
3600
3600
3600
ENDCHAR
STARTCHAR Oslash
ENCODING 216
SWIDTH 562 0
DWIDTH 9 0
BBX 9 16 0 -4
BITMAP
1800
1800
1800
1800
1800
FF80
1800
FF80
1800
1800
1800
1800
1800
1800
1800
1800
ENDCHAR
STARTCHAR Ugrave
ENCODING 217
SWIDTH 562 0
DWIDTH 9 0
BBX 5 8 0 4
BITMAP
18
18
18
18
18
18
18
F8
ENDCHAR
STARTCHAR Uacute
ENCODING 218
SWIDTH 562 0
DWIDTH 9 0
BBX 6 9 3 -4
BITMAP
FC
C0
C0
C0
C0
C0
C0
C0
C0
ENDCHAR
STARTCHAR Ucircumflex
ENCODING 219
SWIDTH 562 0
DWIDTH 9 0
BBX 9 16 0 -4
BITMAP
FF80
FF80
FF80
FF80
FF80
FF80
FF80
FF80
FF80
FF80
FF80
FF80
FF80
FF80
FF80
FF80
ENDCHAR
STARTCHAR Udieresis
ENCODING 220
SWIDTH 562 0
DWIDTH 9 0
BBX 9 8 0 -4
BITMAP
FF80
FF80
FF80
FF80
FF80
FF80
FF80
FF80
ENDCHAR
STARTCHAR Yacute
ENCODING 221
SWIDTH 562 0
DWIDTH 9 0
BBX 4 16 0 -4
BITMAP
F0
F0
F0
F0
F0
F0
F0
F0
F0
F0
F0
F0
F0
F0
F0
F0
ENDCHAR
STARTCHAR Thorn
ENCODING 222
SWIDTH 562 0
DWIDTH 9 0
BBX 5 16 4 -4
BITMAP
F8
F8
F8
F8
F8
F8
F8
F8
F8
F8
F8
F8
F8
F8
F8
F8
ENDCHAR
STARTCHAR germandbls
ENCODING 223
SWIDTH 562 0
DWIDTH 9 0
BBX 9 8 0 4
BITMAP
FF80
FF80
FF80
FF80
FF80
FF80
FF80
FF80
ENDCHAR
STARTCHAR agrave
ENCODING 224
SWIDTH 562 0
DWIDTH 9 0
BBX 7 8 0 0
BITMAP
76
DC
D8
D8
D8
D8
DC
76
ENDCHAR
STARTCHAR aacute
ENCODING 225
SWIDTH 562 0
DWIDTH 9 0
BBX 7 10 0 0
BITMAP
78
CC
CC
D8
FC
C6
C6
C6
C6
CC
ENDCHAR
STARTCHAR acircumflex
ENCODING 226
SWIDTH 562 0
DWIDTH 9 0
BBX 7 10 0 0
BITMAP
FE
66
62
60
60
60
60
60
60
60
ENDCHAR
STARTCHAR atilde
ENCODING 227
SWIDTH 562 0
DWIDTH 9 0
BBX 7 7 0 0
BITMAP
FE
6C
6C
6C
6C
6C
6C
ENDCHAR
STARTCHAR adieresis
ENCODING 228
SWIDTH 562 0
DWIDTH 9 0
BBX 7 10 0 0
BITMAP
FE
C6
62
30
18
18
30
62
C6
FE
ENDCHAR
STARTCHAR aring
ENCODING 229
SWIDTH 562 0
DWIDTH 9 0
BBX 7 7 0 0
BITMAP
7E
D8
CC
CC
CC
D8
70
ENDCHAR
STARTCHAR ae
ENCODING 230
SWIDTH 562 0
DWIDTH 9 0
BBX 7 9 0 -1
BITMAP
66
66
66
66
66
7C
60
C0
80
ENDCHAR
STARTCHAR ccedilla
ENCODING 231
SWIDTH 562 0
DWIDTH 9 0
BBX 7 7 0 0
BITMAP
76
DC
18
18
18
18
18
ENDCHAR
STARTCHAR egrave
ENCODING 232
SWIDTH 562 0
DWIDTH 9 0
BBX 7 10 0 0
BITMAP
FE
38
38
6C
C6
C6
6C
38
38
FE
ENDCHAR
STARTCHAR eacute
ENCODING 233
SWIDTH 562 0
DWIDTH 9 0
BBX 7 9 0 0
BITMAP
38
6C
C6
C6
FE
C6
C6
6C
38
ENDCHAR
STARTCHAR ecircumflex
ENCODING 234
SWIDTH 562 0
DWIDTH 9 0
BBX 7 10 0 0
BITMAP
38
6C
C6
C6
C6
C6
6C
6C
6C
EE
ENDCHAR
STARTCHAR edieresis
ENCODING 235
SWIDTH 562 0
DWIDTH 9 0
BBX 7 10 0 0
BITMAP
3E
60
60
3C
66
C6
C6
C6
CC
78
ENDCHAR
STARTCHAR igrave
ENCODING 236
SWIDTH 562 0
DWIDTH 9 0
BBX 8 5 0 2
BITMAP
7E
DB
DB
DB
7E
ENDCHAR
STARTCHAR iacute
ENCODING 237
SWIDTH 562 0
DWIDTH 9 0
BBX 7 10 0 0
BITMAP
02
06
7C
CE
DE
F6
F6
7C
60
C0
ENDCHAR
STARTCHAR icircumflex
ENCODING 238
SWIDTH 562 0
DWIDTH 9 0
BBX 5 9 1 0
BITMAP
38
60
C0
C0
F8
C0
C0
60
38
ENDCHAR
STARTCHAR idieresis
ENCODING 239
SWIDTH 562 0
DWIDTH 9 0
BBX 7 10 0 0
BITMAP
7C
C6
C6
C6
C6
C6
C6
C6
C6
C6
ENDCHAR
STARTCHAR eth
ENCODING 240
SWIDTH 562 0
DWIDTH 9 0
BBX 7 7 0 1
BITMAP
FE
00
00
FE
00
00
FE
ENDCHAR
STARTCHAR ntilde
ENCODING 241
SWIDTH 562 0
DWIDTH 9 0
BBX 6 8 1 0
BITMAP
30
30
FC
30
30
00
00
FC
ENDCHAR
STARTCHAR ograve
ENCODING 242
SWIDTH 562 0
DWIDTH 9 0
BBX 6 10 1 0
BITMAP
60
30
18
0C
18
30
60
00
00
FC
ENDCHAR
STARTCHAR oacute
ENCODING 243
SWIDTH 562 0
DWIDTH 9 0
BBX 6 10 1 0
BITMAP
18
30
60
C0
60
30
18
00
00
FC
ENDCHAR
STARTCHAR ocircumflex
ENCODING 244
SWIDTH 562 0
DWIDTH 9 0
BBX 4 12 3 -4
BITMAP
60
F0
D0
C0
C0
C0
C0
C0
C0
C0
C0
C0
ENDCHAR
STARTCHAR otilde
ENCODING 245
SWIDTH 562 0
DWIDTH 9 0
BBX 4 13 1 -1
BITMAP
30
30
30
30
30
30
30
30
30
30
B0
F0
60
ENDCHAR
STARTCHAR odieresis
ENCODING 246
SWIDTH 562 0
DWIDTH 9 0
BBX 6 7 1 1
BITMAP
30
30
00
FC
00
30
30
ENDCHAR
STARTCHAR divide
ENCODING 247
SWIDTH 562 0
DWIDTH 9 0
BBX 7 5 0 1
BITMAP
76
DC
00
76
DC
ENDCHAR
STARTCHAR oslash
ENCODING 248
SWIDTH 562 0
DWIDTH 9 0
BBX 6 4 0 6
BITMAP
78
CC
CC
78
ENDCHAR
STARTCHAR ugrave
ENCODING 249
SWIDTH 562 0
DWIDTH 9 0
BBX 2 2 3 3
BITMAP
C0
C0
ENDCHAR
STARTCHAR uacute
ENCODING 250
SWIDTH 562 0
DWIDTH 9 0
BBX 2 1 3 3
BITMAP
C0
ENDCHAR
STARTCHAR ucircumflex
ENCODING 251
SWIDTH 562 0
DWIDTH 9 0
BBX 8 11 0 -1
BITMAP
1F
18
18
18
18
18
D8
D8
78
38
18
ENDCHAR
STARTCHAR udieresis
ENCODING 252
SWIDTH 562 0
DWIDTH 9 0
BBX 6 6 0 4
BITMAP
D8
6C
6C
6C
6C
6C
ENDCHAR
STARTCHAR yacute
ENCODING 253
SWIDTH 562 0
DWIDTH 9 0
BBX 5 6 0 4
BITMAP
70
D8
18
30
60
F8
ENDCHAR
STARTCHAR thorn
ENCODING 254
SWIDTH 562 0
DWIDTH 9 0
BBX 6 6 1 1
BITMAP
FC
FC
FC
FC
FC
FC
ENDCHAR
STARTCHAR ydieresis
ENCODING 255
SWIDTH 562 0
DWIDTH 9 0
BBX 1 1 8 -4
BITMAP
00
ENDCHAR
ENDFONT
